<svg width="828" height="828" viewBox="0 0 828 208" fill="none" xmlns="http://www.w3.org/2000/svg">
<rect x="7" y="27" width="648" height="15" fill="#101318"/>
<path d="M662.44 42V25.9852H663.584L663.752 27.9985C665.389 26.6563 667.163 25.9852 669.075 25.9852C671.597 25.9852 673.229 26.7173 673.971 28.1815C675.811 26.7173 677.677 25.9852 679.569 25.9852C683.148 25.9852 684.937 27.7595 684.937 31.3082V42H683.336V31.3082C683.336 28.7153 682.075 27.4189 679.553 27.4189C677.54 27.4189 675.878 28.1103 674.566 29.4932V42H672.964V31.0489C672.964 28.6289 671.663 27.4189 669.06 27.4189C667.169 27.4189 665.496 28.1103 664.042 29.4932V42H662.44ZM687.669 37.4701C687.669 34.2875 689.784 32.6961 694.014 32.6961C695.508 32.6961 697.105 32.7978 698.803 33.0012V31.0336C698.803 28.5831 697.262 27.3579 694.181 27.3579C692.534 27.3579 690.846 27.6121 689.118 28.1205V26.7478C690.846 26.2394 692.534 25.9852 694.181 25.9852C698.33 25.9852 700.404 27.6426 700.404 30.9574V42H699.428L699.062 40.4138C697.059 41.4713 695.117 42 693.236 42C689.524 42 687.669 40.49 687.669 37.4701ZM694.014 34.0688C690.851 34.0688 689.27 35.1873 689.27 37.4243C689.27 39.5596 690.592 40.6273 693.236 40.6273C695.188 40.6273 697.044 40.1087 698.803 39.0716V34.3739C697.105 34.1705 695.508 34.0688 694.014 34.0688ZM704.051 42V25.9852H705.195L705.393 28.029C707.437 26.6664 709.44 25.9852 711.402 25.9852C715.297 25.9852 717.244 27.668 717.244 31.0336V42H715.643V30.9879C715.643 28.6085 714.204 27.4189 711.326 27.4189C709.404 27.4189 707.513 28.0951 705.652 29.4474V42H704.051ZM719.975 37.4701C719.975 34.2875 722.09 32.6961 726.32 32.6961C727.815 32.6961 729.411 32.7978 731.11 33.0012V31.0336C731.11 28.5831 729.569 27.3579 726.488 27.3579C724.841 27.3579 723.153 27.6121 721.424 28.1205V26.7478C723.153 26.2394 724.841 25.9852 726.488 25.9852C730.637 25.9852 732.711 27.6426 732.711 30.9574V42H731.735L731.369 40.4138C729.366 41.4713 727.424 42 725.542 42C721.831 42 719.975 40.49 719.975 37.4701ZM726.32 34.0688C723.158 34.0688 721.577 35.1873 721.577 37.4243C721.577 39.5596 722.899 40.6273 725.542 40.6273C727.495 40.6273 729.35 40.1087 731.11 39.0716V34.3739C729.411 34.1705 727.815 34.0688 726.32 34.0688ZM747.98 27.7849C746.505 27.5409 745.056 27.4189 743.633 27.4189C739.311 27.4189 737.151 29.5694 737.151 33.8706C737.151 38.2734 739.169 40.4748 743.206 40.4748C744.67 40.4748 746.261 40.2002 747.98 39.6512V27.7849ZM749.581 42C749.581 45.8639 747.227 47.7958 742.519 47.7958C740.547 47.7958 738.798 47.5416 737.273 47.0332V45.6605C738.828 46.1689 740.587 46.4231 742.55 46.4231C746.17 46.4231 747.98 44.9488 747.98 42V41.2374C746.17 41.7458 744.573 42 743.191 42C738.127 42 735.595 39.3004 735.595 33.9011C735.595 28.6238 738.315 25.9852 743.755 25.9852C745.819 25.9852 747.761 26.2038 749.581 26.641V42ZM753.228 42V25.9852H754.372L754.539 27.9985C756.176 26.6563 757.951 25.9852 759.862 25.9852C762.384 25.9852 764.016 26.7173 764.758 28.1815C766.599 26.7173 768.465 25.9852 770.356 25.9852C773.935 25.9852 775.725 27.7595 775.725 31.3082V42H774.123V31.3082C774.123 28.7153 772.862 27.4189 770.341 27.4189C768.327 27.4189 766.665 28.1103 765.353 29.4932V42H763.752V31.0489C763.752 28.6289 762.45 27.4189 759.847 27.4189C757.956 27.4189 756.283 28.1103 754.829 29.4932V42H753.228ZM785.823 25.9852C790.205 25.9852 792.397 28.4103 792.397 33.2605C792.397 33.6062 792.386 33.9672 792.366 34.3434H780.21C780.21 38.5327 782.427 40.6273 786.86 40.6273C788.68 40.6273 790.297 40.3731 791.71 39.8647V41.2374C790.297 41.7458 788.68 42 786.86 42C781.359 42 778.609 39.2699 778.609 33.8096C778.609 28.5933 781.013 25.9852 785.823 25.9852ZM780.21 32.9097H790.856C790.795 29.1881 789.117 27.3274 785.823 27.3274C782.264 27.3274 780.393 29.1881 780.21 32.9097ZM795.265 42V25.9852H796.409L796.607 28.029C798.651 26.6664 800.654 25.9852 802.617 25.9852C806.511 25.9852 808.458 27.668 808.458 31.0336V42H806.857V30.9879C806.857 28.6085 805.418 27.4189 802.541 27.4189C800.619 27.4189 798.728 28.0951 796.867 29.4474V42H795.265ZM812.044 23.3923H813.173L813.462 25.9852H818.267V27.3579H813.6V37.4701C813.6 39.5749 814.372 40.6273 815.918 40.6273H818.267V42H815.949C813.345 42 812.044 40.5612 812.044 37.6836V23.3923Z" fill="#101318"/>
<path d="M195.282 55.5301H211.432V138.382C211.432 147.579 209.385 155.233 205.292 161.345C201.198 167.458 195.759 172.056 188.974 175.14C182.244 178.168 174.927 179.682 167.02 179.682C158.721 179.682 151.206 178.168 144.477 175.14C137.804 172.056 132.505 167.458 128.58 161.345C124.711 155.233 122.776 147.579 122.776 138.382V55.5301H138.842V138.382C138.842 144.775 140.019 150.046 142.374 154.196C144.73 158.345 148.01 161.43 152.216 163.448C156.478 165.467 161.412 166.476 167.02 166.476C172.684 166.476 177.618 165.467 181.824 163.448C186.086 161.43 189.394 158.345 191.749 154.196C194.105 150.046 195.282 144.775 195.282 138.382V55.5301Z" fill="#101318"/>
<path d="M7 56H55.7928C66.8606 56 76.2075 57.3965 83.8335 60.1896C91.527 62.9826 97.3646 67.1163 101.346 72.5907C105.395 78.0092 107.42 84.6845 107.42 92.6168C107.42 98.2028 106.037 103.314 103.27 107.951C100.57 112.531 96.656 116.441 91.527 119.681C86.4655 122.865 80.3917 125.239 73.3056 126.804L67.8392 128.563H21.982L21.7796 115.408H56.4002C63.4188 115.408 69.2564 114.402 73.913 112.391C78.5695 110.325 82.0788 107.56 84.4409 104.096C86.8029 100.633 87.9839 96.8063 87.9839 92.6168C87.9839 87.9244 86.8704 83.8187 84.6433 80.2994C82.4163 76.7802 78.907 74.071 74.1154 72.1717C69.3914 70.2166 63.2838 69.239 55.7928 69.239H26.5374V178H7V56ZM93.1467 178L57.3113 122.698L77.6585 122.614L114 176.994V178H93.1467Z" fill="#101318"/>
<path d="M230.446 179H222.198V56.7168H235.189L279.937 168.689L324.478 56.7168H337.47V179H329.221V66.2025L283.648 179H276.019L230.446 66.2025V179ZM403.422 180.443C386.925 180.443 373.728 174.738 363.83 163.328C353.931 151.918 348.982 136.795 348.982 117.961C348.982 98.4402 353.931 82.8369 363.83 71.1516C373.728 59.4663 386.925 53.6236 403.422 53.6236C419.919 53.6236 433.117 59.4663 443.015 71.1516C452.913 82.8369 457.862 98.4402 457.862 117.961C457.862 136.795 452.913 151.918 443.015 163.328C433.117 174.738 419.919 180.443 403.422 180.443ZM403.422 172.814C417.444 172.814 428.649 167.796 437.035 157.76C445.42 147.862 449.613 134.596 449.613 117.961C449.613 100.915 445.42 87.236 437.035 76.9255C428.649 66.6149 417.444 61.4596 403.422 61.4596C389.4 61.4596 378.196 66.6149 369.81 76.9255C361.424 87.236 357.231 100.915 357.231 117.961C357.231 134.596 361.424 147.862 369.81 157.76C378.196 167.796 389.4 172.814 403.422 172.814ZM469.349 179V56.7168H517.809C530.732 56.7168 541.798 62.5594 551.009 74.2447C560.082 85.7925 564.619 99.8149 564.619 116.312C564.619 133.634 560.082 148.412 551.009 160.647C541.798 172.882 530.732 179 517.809 179H469.349ZM477.598 171.164H517.809C528.395 171.164 537.468 165.802 545.029 155.08C552.59 144.357 556.371 131.434 556.371 116.312C556.371 102.014 552.59 89.848 545.029 79.8124C537.468 69.7768 528.395 64.759 517.809 64.759H477.598V171.164ZM655.465 179H575.661V56.7168H655.465V64.759H583.909V111.775H649.278V119.405H583.909V171.164H655.465V179ZM662.681 179V56.7168H670.93V171.164H736.711V179H662.681ZM777.05 182.093C765.227 182.093 755.192 178.106 746.943 170.133C738.557 162.297 734.364 152.742 734.364 141.47H742.613C742.613 150.543 745.981 158.31 752.717 164.771C759.453 171.233 767.564 174.463 777.05 174.463C787.361 174.463 796.228 171.714 803.651 166.215C810.937 160.716 814.58 154.048 814.58 146.212C814.58 139.476 811.35 133.84 804.888 129.303C798.565 124.766 790.041 122.017 779.318 121.055C766.258 119.955 755.81 116.243 747.974 109.919C740.138 103.595 736.22 95.8282 736.22 86.6174C736.22 77.5441 740.207 69.7768 748.18 63.3155C756.154 56.8542 765.777 53.6236 777.05 53.6236C789.148 53.6236 799.527 56.9917 808.188 63.728C816.711 70.4642 820.973 78.5752 820.973 88.0609H812.725C812.725 80.7747 809.219 74.5197 802.208 69.2957C795.334 64.0716 786.948 61.4596 777.05 61.4596C768.114 61.4596 760.416 63.9342 753.954 68.8832C747.631 73.6948 744.469 79.6062 744.469 86.6174C744.469 93.4911 747.768 99.265 754.367 103.939C761.103 108.613 769.97 111.431 780.968 112.394C793.616 113.494 803.789 117.137 811.487 123.323C819.048 129.509 822.829 137.139 822.829 146.212C822.829 156.111 818.361 164.565 809.425 171.576C800.489 178.588 789.698 182.093 777.05 182.093Z" fill="black"/>
</svg>
